<?xml version="1.0" encoding="UTF-8" standalone="no"?><!DOCTYPE svg PUBLIC "-//W3C//DTD SVG 1.1//EN" "http://www.w3.org/Graphics/SVG/1.1/DTD/svg11.dtd"><!-- Generated by graphviz version 2.40.1 (20161225.0304)
 --><!-- Title: ER_Diagram Pages: 1 --><svg xmlns="http://www.w3.org/2000/svg" xmlns:xlink="http://www.w3.org/1999/xlink" width="1605pt" height="1260pt" viewBox="0.00 0.00 1604.99 1259.90">
<g id="graph0" class="graph" transform="scale(1 1) rotate(0) translate(4 1255.9033)">
<title>ER_Diagram</title>
<polygon fill="#ffffff" stroke="transparent" points="-4,4 -4,-1255.9033 1600.9921,-1255.9033 1600.9921,4 -4,4"/>
<!-- CATEGORY -->
<g id="node1" class="node">
<title>CATEGORY</title>
<polygon fill="#e5e5e5" stroke="#000000" points="615.1611,-281.8 531.491,-281.8 531.491,-245.8 615.1611,-245.8 615.1611,-281.8"/>
<text text-anchor="middle" x="573.3261" y="-260.2" font-family="Helvetica,sans-Serif" font-size="12.00" fill="#000000">CATEGORY</text>
</g>
<!-- cat_id -->
<g id="node28" class="node">
<title>cat_id</title>
<ellipse fill="#ffffff" stroke="#000000" cx="638.3261" cy="-177.4" rx="49.6597" ry="18"/>
<text text-anchor="start" x="607.3175" y="-174.8" font-family="Helvetica,sans-Serif" text-decoration="underline" font-size="12.00" fill="#000000">category_id</text>
</g>
<!-- CATEGORY&#45;&gt;cat_id -->
<g id="edge31" class="edge">
<title>CATEGORY-&gt;cat_id</title>
<path fill="none" stroke="#000000" d="M587.1109,-245.4768C598.3652,-230.5172 614.1615,-209.5203 625.2261,-194.8129"/>
</g>
<!-- cat_name -->
<g id="node29" class="node">
<title>cat_name</title>
<ellipse fill="#ffffff" stroke="#000000" cx="414.3261" cy="-177.4" rx="43.7368" ry="18"/>
<text text-anchor="middle" x="414.3261" y="-173.8" font-family="Helvetica,sans-Serif" font-size="12.00" fill="#000000">cat_name</text>
</g>
<!-- CATEGORY&#45;&gt;cat_name -->
<g id="edge32" class="edge">
<title>CATEGORY-&gt;cat_name</title>
<path fill="none" stroke="#000000" d="M539.9945,-245.6877C510.4903,-229.6553 468.0032,-206.568 440.7797,-191.7748"/>
</g>
<!-- description -->
<g id="node30" class="node">
<title>description</title>
<ellipse fill="#ffffff" stroke="#000000" cx="523.3261" cy="-177.4" rx="47.0404" ry="18"/>
<text text-anchor="middle" x="523.3261" y="-173.8" font-family="Helvetica,sans-Serif" font-size="12.00" fill="#000000">description</text>
</g>
<!-- CATEGORY&#45;&gt;description -->
<g id="edge33" class="edge">
<title>CATEGORY-&gt;description</title>
<path fill="none" stroke="#000000" d="M562.7223,-245.4768C554.1225,-230.6163 542.075,-209.7981 533.5725,-195.1059"/>
</g>
<!-- PUBLISHER -->
<g id="node2" class="node">
<title>PUBLISHER</title>
<polygon fill="#e5e5e5" stroke="#000000" points="1357.3313,-281.8 1273.3209,-281.8 1273.3209,-245.8 1357.3313,-245.8 1357.3313,-281.8"/>
<text text-anchor="middle" x="1315.3261" y="-260.2" font-family="Helvetica,sans-Serif" font-size="12.00" fill="#000000">PUBLISHER</text>
</g>
<!-- pub_id -->
<g id="node31" class="node">
<title>pub_id</title>
<ellipse fill="#ffffff" stroke="#000000" cx="1199.3261" cy="-177.4" rx="51.559" ry="18"/>
<text text-anchor="start" x="1166.9867" y="-174.8" font-family="Helvetica,sans-Serif" text-decoration="underline" font-size="12.00" fill="#000000">publisher_id</text>
</g>
<!-- PUBLISHER&#45;&gt;pub_id -->
<g id="edge34" class="edge">
<title>PUBLISHER-&gt;pub_id</title>
<path fill="none" stroke="#000000" d="M1291.0087,-245.6877C1270.4137,-230.348 1241.1478,-208.55 1221.2609,-193.7377"/>
</g>
<!-- pub_name -->
<g id="node32" class="node">
<title>pub_name</title>
<ellipse fill="#ffffff" stroke="#000000" cx="1315.3261" cy="-177.4" rx="46.3548" ry="18"/>
<text text-anchor="middle" x="1315.3261" y="-173.8" font-family="Helvetica,sans-Serif" font-size="12.00" fill="#000000">pub_name</text>
</g>
<!-- PUBLISHER&#45;&gt;pub_name -->
<g id="edge35" class="edge">
<title>PUBLISHER-&gt;pub_name</title>
<path fill="none" stroke="#000000" d="M1315.3261,-245.4768C1315.3261,-230.7153 1315.3261,-210.0754 1315.3261,-195.4005"/>
</g>
<!-- p1 -->
<g id="node33" class="node">
<title>p1</title>
<ellipse fill="#ffffff" stroke="#000000" cx="1424.3261" cy="-177.4" rx="44.1094" ry="18"/>
<text text-anchor="middle" x="1424.3261" y="-173.8" font-family="Helvetica,sans-Serif" font-size="12.00" fill="#000000">phone_no</text>
</g>
<!-- PUBLISHER&#45;&gt;p1 -->
<g id="edge36" class="edge">
<title>PUBLISHER-&gt;p1</title>
<path fill="none" stroke="#000000" d="M1338.176,-245.6877C1357.6531,-230.2491 1385.3832,-208.2684 1404.0755,-193.4518"/>
</g>
<!-- e1 -->
<g id="node34" class="node">
<title>e1</title>
<ellipse fill="#ffffff" stroke="#000000" cx="1515.3261" cy="-177.4" rx="28.5512" ry="18"/>
<text text-anchor="middle" x="1515.3261" y="-173.8" font-family="Helvetica,sans-Serif" font-size="12.00" fill="#000000">email</text>
</g>
<!-- PUBLISHER&#45;&gt;e1 -->
<g id="edge37" class="edge">
<title>PUBLISHER-&gt;e1</title>
<path fill="none" stroke="#000000" d="M1357.4965,-246.5754C1390.3169,-233.0301 1436.9231,-213.4886 1477.3261,-195.4 1482.2564,-193.1926 1487.5116,-190.7574 1492.4918,-188.4104"/>
</g>
<!-- BOOK -->
<g id="node3" class="node">
<title>BOOK</title>
<polygon fill="#e5e5e5" stroke="#000000" points="945.3261,-454.6 891.3261,-454.6 891.3261,-418.6 945.3261,-418.6 945.3261,-454.6"/>
<text text-anchor="middle" x="918.3261" y="-433" font-family="Helvetica,sans-Serif" font-size="12.00" fill="#000000">BOOK</text>
</g>
<!-- WRITTEN_BY -->
<g id="node13" class="node">
<title>WRITTEN_BY</title>
<polygon fill="#e5e5e5" stroke="#000000" points="918.3261,-368.2 834.2271,-350.2 918.3261,-332.2 1002.425,-350.2 918.3261,-368.2"/>
<text text-anchor="middle" x="918.3261" y="-346.6" font-family="Helvetica,sans-Serif" font-size="12.00" fill="#000000">WRITTEN_BY</text>
</g>
<!-- BOOK&#45;&gt;WRITTEN_BY -->
<g id="edge1" class="edge">
<title>BOOK-&gt;WRITTEN_BY</title>
<path fill="none" stroke="#000000" d="M918.3261,-418.2768C918.3261,-403.5153 918.3261,-382.8754 918.3261,-368.2005"/>
<text text-anchor="middle" x="930.6591" y="-389.8" font-family="Helvetica,sans-Serif" font-size="12.00" fill="#000000">(1,n)</text>
</g>
<!-- PUBLISHED_BY -->
<g id="node14" class="node">
<title>PUBLISHED_BY</title>
<polygon fill="#e5e5e5" stroke="#000000" points="1117.3261,-368.2 1021.1039,-350.2 1117.3261,-332.2 1213.5482,-350.2 1117.3261,-368.2"/>
<text text-anchor="middle" x="1117.3261" y="-346.6" font-family="Helvetica,sans-Serif" font-size="12.00" fill="#000000">PUBLISHED_BY</text>
</g>
<!-- BOOK&#45;&gt;PUBLISHED_BY -->
<g id="edge3" class="edge">
<title>BOOK-&gt;PUBLISHED_BY</title>
<path fill="none" stroke="#000000" d="M945.5789,-424.7676C982.942,-408.5457 1049.7936,-379.5206 1088.1424,-362.8707"/>
<text text-anchor="middle" x="1041.6591" y="-389.8" font-family="Helvetica,sans-Serif" font-size="12.00" fill="#000000">(0,1)</text>
</g>
<!-- IS_IN -->
<g id="node17" class="node">
<title>IS_IN</title>
<polygon fill="#e5e5e5" stroke="#000000" points="774.3261,-368.2 732.7155,-350.2 774.3261,-332.2 815.9367,-350.2 774.3261,-368.2"/>
<text text-anchor="middle" x="774.3261" y="-346.6" font-family="Helvetica,sans-Serif" font-size="12.00" fill="#000000">IS_IN</text>
</g>
<!-- BOOK&#45;&gt;IS_IN -->
<g id="edge10" class="edge">
<title>BOOK-&gt;IS_IN</title>
<path fill="none" stroke="#000000" d="M891.2408,-420.3488C862.0741,-402.8488 816.5348,-375.5252 791.7787,-360.6716"/>
<text text-anchor="middle" x="866.6591" y="-389.8" font-family="Helvetica,sans-Serif" font-size="12.00" fill="#000000">(1,n)</text>
</g>
<!-- isbn -->
<g id="node35" class="node">
<title>isbn</title>
<ellipse fill="#ffffff" stroke="#000000" cx="1258.3261" cy="-350.2" rx="27" ry="18"/>
<text text-anchor="start" x="1247.3239" y="-347.6" font-family="Helvetica,sans-Serif" text-decoration="underline" font-size="12.00" fill="#000000">isbn</text>
</g>
<!-- BOOK&#45;&gt;isbn -->
<g id="edge38" class="edge">
<title>BOOK-&gt;isbn</title>
<path fill="none" stroke="#000000" d="M945.3709,-432.7719C999.2254,-424.6609 1123.2176,-403.5352 1222.3261,-368.2 1227.3283,-366.4165 1232.5333,-364.1056 1237.3798,-361.7375"/>
</g>
<!-- release_year -->
<g id="node36" class="node">
<title>release_year</title>
<ellipse fill="#ffffff" stroke="#000000" cx="1358.3261" cy="-350.2" rx="54.5235" ry="18"/>
<text text-anchor="middle" x="1358.3261" y="-346.6" font-family="Helvetica,sans-Serif" font-size="12.00" fill="#000000">release_year</text>
</g>
<!-- BOOK&#45;&gt;release_year -->
<g id="edge39" class="edge">
<title>BOOK-&gt;release_year</title>
<path fill="none" stroke="#000000" d="M945.3387,-433.1598C989.309,-427.4076 1079.0218,-415.0357 1154.3261,-400.6 1217.0507,-388.5758 1232.4573,-384.0502 1294.3261,-368.2 1301.7056,-366.3094 1309.534,-364.1973 1317.0892,-362.1035"/>
</g>
<!-- sales_price -->
<g id="node37" class="node">
<title>sales_price</title>
<ellipse fill="#ffffff" stroke="#000000" cx="593.3261" cy="-350.2" rx="48.9438" ry="18"/>
<text text-anchor="middle" x="593.3261" y="-346.6" font-family="Helvetica,sans-Serif" font-size="12.00" fill="#000000">sales_price</text>
</g>
<!-- BOOK&#45;&gt;sales_price -->
<g id="edge40" class="edge">
<title>BOOK-&gt;sales_price</title>
<path fill="none" stroke="#000000" d="M891.0579,-430.5054C860.5712,-423.607 809.7725,-411.8599 766.3261,-400.6 714.9234,-387.2781 702.2434,-383.2708 651.3261,-368.2 644.6537,-366.2251 637.5666,-364.072 630.7223,-361.964"/>
</g>
<!-- title -->
<g id="node38" class="node">
<title>title</title>
<ellipse fill="#ffffff" stroke="#000000" cx="687.3261" cy="-350.2" rx="27" ry="18"/>
<text text-anchor="middle" x="687.3261" y="-346.6" font-family="Helvetica,sans-Serif" font-size="12.00" fill="#000000">title</text>
</g>
<!-- BOOK&#45;&gt;title -->
<g id="edge41" class="edge">
<title>BOOK-&gt;title</title>
<path fill="none" stroke="#000000" d="M891.1061,-428.2533C853.0354,-416.3096 781.9674,-393.028 723.3261,-368.2 718.5644,-366.184 713.5475,-363.8294 708.8208,-361.5005"/>
</g>
<!-- AUTHOR -->
<g id="node4" class="node">
<title>AUTHOR</title>
<polygon fill="#e5e5e5" stroke="#000000" points="951.4837,-281.8 885.1684,-281.8 885.1684,-245.8 951.4837,-245.8 951.4837,-281.8"/>
<text text-anchor="middle" x="918.3261" y="-260.2" font-family="Helvetica,sans-Serif" font-size="12.00" fill="#000000">AUTHOR</text>
</g>
<!-- ha1 -->
<g id="node20" class="node">
<title>ha1</title>
<polygon fill="#e5e5e5" stroke="#000000" points="756.3261,-195.4 706.3499,-177.4 756.3261,-159.4 806.3022,-177.4 756.3261,-195.4"/>
<text text-anchor="middle" x="756.3261" y="-173.8" font-family="Helvetica,sans-Serif" font-size="12.00" fill="#000000">HAS_A</text>
</g>
<!-- AUTHOR&#45;&gt;ha1 -->
<g id="edge15" class="edge">
<title>AUTHOR-&gt;ha1</title>
<path fill="none" stroke="#000000" d="M885.152,-246.1072C852.5678,-228.7289 803.8965,-202.7709 776.659,-188.2442"/>
<text text-anchor="middle" x="858.6591" y="-217" font-family="Helvetica,sans-Serif" font-size="12.00" fill="#000000">(1,1)</text>
</g>
<!-- author_id -->
<g id="node39" class="node">
<title>author_id</title>
<ellipse fill="#ffffff" stroke="#000000" cx="866.3261" cy="-177.4" rx="42.331" ry="18"/>
<text text-anchor="start" x="841.3175" y="-174.8" font-family="Helvetica,sans-Serif" text-decoration="underline" font-size="12.00" fill="#000000">author_id</text>
</g>
<!-- AUTHOR&#45;&gt;author_id -->
<g id="edge42" class="edge">
<title>AUTHOR-&gt;author_id</title>
<path fill="none" stroke="#000000" d="M907.2982,-245.4768C898.3544,-230.6163 885.8249,-209.7981 876.9824,-195.1059"/>
</g>
<!-- birth_date -->
<g id="node40" class="node">
<title>birth_date</title>
<ellipse fill="#ffffff" stroke="#000000" cx="970.3261" cy="-177.4" rx="44.0911" ry="18"/>
<text text-anchor="middle" x="970.3261" y="-173.8" font-family="Helvetica,sans-Serif" font-size="12.00" fill="#000000">birth_date</text>
</g>
<!-- AUTHOR&#45;&gt;birth_date -->
<g id="edge43" class="edge">
<title>AUTHOR-&gt;birth_date</title>
<path fill="none" stroke="#000000" d="M929.3539,-245.4768C938.2978,-230.6163 950.8272,-209.7981 959.6697,-195.1059"/>
</g>
<!-- death_date -->
<g id="node41" class="node">
<title>death_date</title>
<ellipse fill="#ffffff" stroke="#000000" cx="1081.3261" cy="-177.4" rx="48.6284" ry="18"/>
<text text-anchor="middle" x="1081.3261" y="-173.8" font-family="Helvetica,sans-Serif" font-size="12.00" fill="#000000">death_date</text>
</g>
<!-- AUTHOR&#45;&gt;death_date -->
<g id="edge44" class="edge">
<title>AUTHOR-&gt;death_date</title>
<path fill="none" stroke="#000000" d="M951.7049,-246.1072C981.696,-230.21 1025.2321,-207.1332 1053.4139,-192.1951"/>
</g>
<!-- NAME -->
<g id="node5" class="node">
<title>NAME</title>
<polygon fill="#e5e5e5" stroke="#000000" points="1191.3261,-109 1137.3261,-109 1137.3261,-73 1191.3261,-73 1191.3261,-109"/>
<text text-anchor="middle" x="1164.3261" y="-87.4" font-family="Helvetica,sans-Serif" font-size="12.00" fill="#000000">NAME</text>
</g>
<!-- name_id -->
<g id="node42" class="node">
<title>name_id</title>
<ellipse fill="#ffffff" stroke="#000000" cx="1035.3261" cy="-18" rx="39.7139" ry="18"/>
<text text-anchor="start" x="1012.3203" y="-15.4" font-family="Helvetica,sans-Serif" text-decoration="underline" font-size="12.00" fill="#000000">name_id</text>
</g>
<!-- NAME&#45;&gt;name_id -->
<g id="edge45" class="edge">
<title>NAME-&gt;name_id</title>
<path fill="none" stroke="#000000" d="M1137.2834,-75.6968C1114.5282,-62.8198 1082.2543,-44.5563 1060.1484,-32.0468"/>
</g>
<!-- fname -->
<g id="node43" class="node">
<title>fname</title>
<ellipse fill="#ffffff" stroke="#000000" cx="1124.3261" cy="-18" rx="31.5294" ry="18"/>
<text text-anchor="middle" x="1124.3261" y="-14.4" font-family="Helvetica,sans-Serif" font-size="12.00" fill="#000000">fname</text>
</g>
<!-- NAME&#45;&gt;fname -->
<g id="edge46" class="edge">
<title>NAME-&gt;fname</title>
<path fill="none" stroke="#000000" d="M1154.4384,-72.9551C1148.1457,-61.4708 1140.0405,-46.6788 1133.8245,-35.3347"/>
</g>
<!-- lname -->
<g id="node44" class="node">
<title>lname</title>
<ellipse fill="#ffffff" stroke="#000000" cx="1205.3261" cy="-18" rx="31.1713" ry="18"/>
<text text-anchor="middle" x="1205.3261" y="-14.4" font-family="Helvetica,sans-Serif" font-size="12.00" fill="#000000">lname</text>
</g>
<!-- NAME&#45;&gt;lname -->
<g id="edge47" class="edge">
<title>NAME-&gt;lname</title>
<path fill="none" stroke="#000000" d="M1174.4609,-72.9551C1180.9109,-61.4708 1189.2188,-46.6788 1195.5901,-35.3347"/>
</g>
<!-- middle_inits -->
<g id="node45" class="node">
<title>middle_inits</title>
<ellipse fill="#ffffff" stroke="#000000" cx="1305.3261" cy="-18" rx="50.8428" ry="18"/>
<text text-anchor="middle" x="1305.3261" y="-14.4" font-family="Helvetica,sans-Serif" font-size="12.00" fill="#000000">middle_inits</text>
</g>
<!-- NAME&#45;&gt;middle_inits -->
<g id="edge48" class="edge">
<title>NAME-&gt;middle_inits</title>
<path fill="none" stroke="#000000" d="M1191.5123,-76.9249C1215.84,-64.3297 1251.4023,-45.918 1276.2817,-33.0371"/>
</g>
<!-- USER -->
<g id="node6" class="node">
<title>USER</title>
<polygon fill="#e5e5e5" stroke="#000000" points="1001.3261,-1251.9033 947.3261,-1251.9033 947.3261,-1215.9033 1001.3261,-1215.9033 1001.3261,-1251.9033"/>
<text text-anchor="middle" x="974.3261" y="-1230.3033" font-family="Helvetica,sans-Serif" font-size="12.00" fill="#000000">USER</text>
</g>
<!-- PLACES -->
<g id="node15" class="node">
<title>PLACES</title>
<polygon fill="#e5e5e5" stroke="#000000" points="251.3261,-986.9069 193.8919,-968.9069 251.3261,-950.9069 308.7602,-968.9069 251.3261,-986.9069"/>
<text text-anchor="middle" x="251.3261" y="-965.3069" font-family="Helvetica,sans-Serif" font-size="12.00" fill="#000000">PLACES</text>
</g>
<!-- USER&#45;&gt;PLACES -->
<g id="edge5" class="edge">
<title>USER-&gt;PLACES</title>
<path fill="none" stroke="#000000" d="M947.0262,-1231.7989C884.4404,-1226.7697 732.2428,-1213.3171 683.3261,-1197.9033 510.8784,-1143.5644 326.3312,-1021.1201 269.2002,-981.5196"/>
<text text-anchor="middle" x="605.6591" y="-1139.6051" font-family="Helvetica,sans-Serif" font-size="12.00" fill="#000000">(0,n)</text>
</g>
<!-- h1 -->
<g id="node18" class="node">
<title>h1</title>
<polygon fill="#e5e5e5" stroke="#000000" points="695.3261,-878.9069 637.6998,-860.9069 695.3261,-842.9069 752.9523,-860.9069 695.3261,-878.9069"/>
<text text-anchor="middle" x="695.3261" y="-857.3069" font-family="Helvetica,sans-Serif" font-size="12.00" fill="#000000">HAS_AN</text>
</g>
<!-- USER&#45;&gt;h1 -->
<g id="edge9" class="edge">
<title>USER-&gt;h1</title>
<path fill="none" stroke="#000000" d="M947.2618,-1230.9018C877.5614,-1222.4245 697.3261,-1195.4522 697.3261,-1143.2051 697.3261,-1143.2051 697.3261,-1143.2051 697.3261,-968.9069 697.3261,-937.214 696.4544,-900.2985 695.862,-878.8679"/>
<text text-anchor="middle" x="709.6591" y="-1081.3069" font-family="Helvetica,sans-Serif" font-size="12.00" fill="#000000">(1,1)</text>
</g>
<!-- ha2 -->
<g id="node21" class="node">
<title>ha2</title>
<polygon fill="#e5e5e5" stroke="#000000" points="1376.3261,-1102.9069 1326.3499,-1084.9069 1376.3261,-1066.9069 1426.3022,-1084.9069 1376.3261,-1102.9069"/>
<text text-anchor="middle" x="1376.3261" y="-1081.3069" font-family="Helvetica,sans-Serif" font-size="12.00" fill="#000000">HAS_A</text>
</g>
<!-- USER&#45;&gt;ha2 -->
<g id="edge17" class="edge">
<title>USER-&gt;ha2</title>
<path fill="none" stroke="#000000" d="M970.979,-1215.5167C967.4804,-1189.7428 965.8036,-1143.5001 993.3261,-1120.9069 1018.8783,-1099.931 1234.0172,-1089.8668 1330.1903,-1086.3831"/>
<text text-anchor="middle" x="980.6591" y="-1187.1033" font-family="Helvetica,sans-Serif" font-size="12.00" fill="#000000">(1,1)</text>
</g>
<!-- IS_AN -->
<g id="node22" class="node">
<title>IS_AN</title>
<polygon fill="#e5e5e5" stroke="#000000" points="889.3261,-1161.0436 843.3912,-1143.2051 889.3261,-1125.3665 935.2609,-1143.2051 889.3261,-1161.0436"/>
<polygon fill="none" stroke="#000000" points="889.3261,-1165.3033 832.4225,-1143.2051 889.3261,-1121.1069 946.2296,-1143.2051 889.3261,-1165.3033"/>
<text text-anchor="middle" x="889.3261" y="-1139.6051" font-family="Helvetica,sans-Serif" font-size="12.00" fill="#000000">IS_AN</text>
</g>
<!-- USER&#45;&gt;IS_AN -->
<g id="edge19" class="edge">
<title>USER-&gt;IS_AN</title>
<path fill="none" stroke="#000000" d="M947.9622,-1215.78C940.9992,-1210.4172 933.7384,-1204.2665 927.6601,-1197.9033 917.0071,-1186.7508 907.0764,-1172.4227 899.9928,-1161.2289"/>
<text text-anchor="middle" x="939.6591" y="-1187.1033" font-family="Helvetica,sans-Serif" font-size="12.00" fill="#000000">(0,n)</text>
</g>
<!-- user_id -->
<g id="node46" class="node">
<title>user_id</title>
<ellipse fill="#ffffff" stroke="#000000" cx="1037.3261" cy="-1143.2051" rx="35.193" ry="18"/>
<text text-anchor="start" x="1017.6557" y="-1140.6051" font-family="Helvetica,sans-Serif" text-decoration="underline" font-size="12.00" fill="#000000">user_id</text>
</g>
<!-- USER&#45;&gt;user_id -->
<g id="edge49" class="edge">
<title>USER-&gt;user_id</title>
<path fill="none" stroke="#000000" d="M989.8207,-1215.5538C994.3209,-1209.9923 999.1461,-1203.794 1003.3261,-1197.9033 1011.8672,-1185.8665 1020.6399,-1171.7001 1027.1344,-1160.8004"/>
</g>
<!-- email -->
<g id="node47" class="node">
<title>email</title>
<ellipse fill="#ffffff" stroke="#000000" cx="1119.3261" cy="-1143.2051" rx="28.5512" ry="18"/>
<text text-anchor="middle" x="1119.3261" y="-1139.6051" font-family="Helvetica,sans-Serif" font-size="12.00" fill="#000000">email</text>
</g>
<!-- USER&#45;&gt;email -->
<g id="edge50" class="edge">
<title>USER-&gt;email</title>
<path fill="none" stroke="#000000" d="M1001.5995,-1216.8436C1029.8202,-1199.1914 1073.263,-1172.0177 1098.7339,-1156.0856"/>
</g>
<!-- phone_no -->
<g id="node48" class="node">
<title>phone_no</title>
<ellipse fill="#ffffff" stroke="#000000" cx="1210.3261" cy="-1143.2051" rx="44.1094" ry="18"/>
<text text-anchor="middle" x="1210.3261" y="-1139.6051" font-family="Helvetica,sans-Serif" font-size="12.00" fill="#000000">phone_no</text>
</g>
<!-- USER&#45;&gt;phone_no -->
<g id="edge51" class="edge">
<title>USER-&gt;phone_no</title>
<path fill="none" stroke="#000000" d="M1001.4333,-1224.1609C1037.273,-1211.1911 1102.3174,-1187.3448 1157.3261,-1165.5033 1164.5629,-1162.6298 1172.31,-1159.4374 1179.5846,-1156.387"/>
</g>
<!-- ADDRESS -->
<g id="node7" class="node">
<title>ADDRESS</title>
<polygon fill="#e5e5e5" stroke="#000000" points="891.3257,-639.7431 817.3265,-639.7431 817.3265,-603.7431 891.3257,-603.7431 891.3257,-639.7431"/>
<text text-anchor="middle" x="854.3261" y="-618.1431" font-family="Helvetica,sans-Serif" font-size="12.00" fill="#000000">ADDRESS</text>
</g>
<!-- address_id -->
<g id="node49" class="node">
<title>address_id</title>
<ellipse fill="#ffffff" stroke="#000000" cx="955.3261" cy="-527.1715" rx="47.9001" ry="18"/>
<text text-anchor="start" x="925.9849" y="-524.5715" font-family="Helvetica,sans-Serif" text-decoration="underline" font-size="12.00" fill="#000000">address_id</text>
</g>
<!-- ADDRESS&#45;&gt;address_id -->
<g id="edge52" class="edge">
<title>ADDRESS-&gt;address_id</title>
<path fill="none" stroke="#000000" d="M873.7999,-603.5087C892.1433,-586.3328 919.4036,-560.8076 937.2693,-544.079"/>
</g>
<!-- address -->
<g id="node50" class="node">
<title>address</title>
<ellipse fill="#ffffff" stroke="#000000" cx="1058.3261" cy="-527.1715" rx="37.4552" ry="18"/>
<text text-anchor="middle" x="1058.3261" y="-523.5715" font-family="Helvetica,sans-Serif" font-size="12.00" fill="#000000">address</text>
</g>
<!-- ADDRESS&#45;&gt;address -->
<g id="edge53" class="edge">
<title>ADDRESS-&gt;address</title>
<path fill="none" stroke="#000000" d="M891.4524,-604.9769C923.531,-590.4314 971.0926,-568.725 1012.3261,-549.3431 1018.5841,-546.4014 1025.2991,-543.1941 1031.6115,-540.156"/>
</g>
<!-- secondary_address -->
<g id="node51" class="node">
<title>secondary_address</title>
<ellipse fill="#ffffff" stroke="#000000" cx="1191.3261" cy="-527.1715" rx="77.1791" ry="18"/>
<text text-anchor="middle" x="1191.3261" y="-523.5715" font-family="Helvetica,sans-Serif" font-size="12.00" fill="#000000">secondary_address</text>
</g>
<!-- ADDRESS&#45;&gt;secondary_address -->
<g id="edge54" class="edge">
<title>ADDRESS-&gt;secondary_address</title>
<path fill="none" stroke="#000000" d="M891.355,-611.3517C952.3105,-594.2459 1073.8122,-560.1492 1141.9925,-541.0159"/>
</g>
<!-- city -->
<g id="node52" class="node">
<title>city</title>
<ellipse fill="#ffffff" stroke="#000000" cx="630.3261" cy="-527.1715" rx="27" ry="18"/>
<text text-anchor="middle" x="630.3261" y="-523.5715" font-family="Helvetica,sans-Serif" font-size="12.00" fill="#000000">city</text>
</g>
<!-- ADDRESS&#45;&gt;city -->
<g id="edge55" class="edge">
<title>ADDRESS-&gt;city</title>
<path fill="none" stroke="#000000" d="M817.0785,-609.6771C778.5179,-596.6634 716.9449,-574.4099 666.3261,-549.3431 660.8007,-546.6068 655.0253,-543.2791 649.759,-540.0427"/>
</g>
<!-- state -->
<g id="node53" class="node">
<title>state</title>
<ellipse fill="#ffffff" stroke="#000000" cx="702.3261" cy="-527.1715" rx="27" ry="18"/>
<text text-anchor="middle" x="702.3261" y="-523.5715" font-family="Helvetica,sans-Serif" font-size="12.00" fill="#000000">state</text>
</g>
<!-- ADDRESS&#45;&gt;state -->
<g id="edge56" class="edge">
<title>ADDRESS-&gt;state</title>
<path fill="none" stroke="#000000" d="M825.3782,-603.7323C795.2308,-584.9751 748.7982,-556.0856 722.4333,-539.6819"/>
</g>
<!-- zip -->
<g id="node54" class="node">
<title>zip</title>
<ellipse fill="#ffffff" stroke="#000000" cx="774.3261" cy="-527.1715" rx="27" ry="18"/>
<text text-anchor="middle" x="774.3261" y="-523.5715" font-family="Helvetica,sans-Serif" font-size="12.00" fill="#000000">zip</text>
</g>
<!-- ADDRESS&#45;&gt;zip -->
<g id="edge57" class="edge">
<title>ADDRESS-&gt;zip</title>
<path fill="none" stroke="#000000" d="M838.9013,-603.5087C824.0994,-586.0108 801.9673,-559.8475 787.8404,-543.1474"/>
</g>
<!-- country -->
<g id="node55" class="node">
<title>country</title>
<ellipse fill="#ffffff" stroke="#000000" cx="854.3261" cy="-527.1715" rx="35.1945" ry="18"/>
<text text-anchor="middle" x="854.3261" y="-523.5715" font-family="Helvetica,sans-Serif" font-size="12.00" fill="#000000">country</text>
</g>
<!-- ADDRESS&#45;&gt;country -->
<g id="edge58" class="edge">
<title>ADDRESS-&gt;country</title>
<path fill="none" stroke="#000000" d="M854.3261,-603.5087C854.3261,-586.7622 854.3261,-562.0786 854.3261,-545.3499"/>
</g>
<!-- ORDER -->
<g id="node8" class="node">
<title>ORDER</title>
<polygon fill="#e5e5e5" stroke="#000000" points="168.153,-454.6 108.4992,-454.6 108.4992,-418.6 168.153,-418.6 168.153,-454.6"/>
<text text-anchor="middle" x="138.3261" y="-433" font-family="Helvetica,sans-Serif" font-size="12.00" fill="#000000">ORDER</text>
</g>
<!-- order_id -->
<g id="node56" class="node">
<title>order_id</title>
<ellipse fill="#ffffff" stroke="#000000" cx="38.3261" cy="-350.2" rx="38.1529" ry="18"/>
<text text-anchor="start" x="16.3229" y="-347.6" font-family="Helvetica,sans-Serif" text-decoration="underline" font-size="12.00" fill="#000000">order_id</text>
</g>
<!-- ORDER&#45;&gt;order_id -->
<g id="edge59" class="edge">
<title>ORDER-&gt;order_id</title>
<path fill="none" stroke="#000000" d="M117.1186,-418.2768C99.231,-402.8219 73.8852,-380.9231 56.8133,-366.173"/>
</g>
<!-- sale_date -->
<g id="node57" class="node">
<title>sale_date</title>
<ellipse fill="#ffffff" stroke="#000000" cx="138.3261" cy="-350.2" rx="43.3918" ry="18"/>
<text text-anchor="middle" x="138.3261" y="-346.6" font-family="Helvetica,sans-Serif" font-size="12.00" fill="#000000">sale_date</text>
</g>
<!-- ORDER&#45;&gt;sale_date -->
<g id="edge60" class="edge">
<title>ORDER-&gt;sale_date</title>
<path fill="none" stroke="#000000" d="M138.3261,-418.2768C138.3261,-403.5153 138.3261,-382.8754 138.3261,-368.2005"/>
</g>
<!-- bill_no -->
<g id="node58" class="node">
<title>bill_no</title>
<ellipse fill="#ffffff" stroke="#000000" cx="232.3261" cy="-350.2" rx="32.2284" ry="18"/>
<text text-anchor="middle" x="232.3261" y="-346.6" font-family="Helvetica,sans-Serif" font-size="12.00" fill="#000000">bill_no</text>
</g>
<!-- ORDER&#45;&gt;bill_no -->
<g id="edge61" class="edge">
<title>ORDER-&gt;bill_no</title>
<path fill="none" stroke="#000000" d="M158.261,-418.2768C175.291,-402.6237 199.5125,-380.3606 215.5614,-365.6092"/>
</g>
<!-- WAREHOUSE -->
<g id="node9" class="node">
<title>WAREHOUSE</title>
<polygon fill="#e5e5e5" stroke="#000000" points="1141.4879,-824.9069 1047.1643,-824.9069 1047.1643,-788.9069 1141.4879,-788.9069 1141.4879,-824.9069"/>
<text text-anchor="middle" x="1094.3261" y="-803.3069" font-family="Helvetica,sans-Serif" font-size="12.00" fill="#000000">WAREHOUSE</text>
</g>
<!-- h2 -->
<g id="node19" class="node">
<title>h2</title>
<polygon fill="#e5e5e5" stroke="#000000" points="955.3261,-734.325 897.6998,-716.325 955.3261,-698.325 1012.9523,-716.325 955.3261,-734.325"/>
<text text-anchor="middle" x="955.3261" y="-712.725" font-family="Helvetica,sans-Serif" font-size="12.00" fill="#000000">HAS_AN</text>
</g>
<!-- WAREHOUSE&#45;&gt;h2 -->
<g id="edge13" class="edge">
<title>WAREHOUSE-&gt;h2</title>
<path fill="none" stroke="#000000" d="M1066.5314,-788.794C1039.1192,-770.9303 997.971,-744.1153 974.1705,-728.6053"/>
<text text-anchor="middle" x="1048.6591" y="-760.1069" font-family="Helvetica,sans-Serif" font-size="12.00" fill="#000000">(1,1)</text>
</g>
<!-- FULFILLS -->
<g id="node26" class="node">
<title>FULFILLS</title>
<polygon fill="#e5e5e5" stroke="#000000" points="801.3261,-734.4526 737.4268,-716.325 801.3261,-698.1974 865.2254,-716.325 801.3261,-734.4526"/>
<polygon fill="none" stroke="#000000" points="801.3261,-738.638 722.6732,-716.325 801.3261,-694.0119 879.9789,-716.325 801.3261,-738.638"/>
<text text-anchor="middle" x="801.3261" y="-712.725" font-family="Helvetica,sans-Serif" font-size="12.00" fill="#000000">FULFILLS</text>
</g>
<!-- WAREHOUSE&#45;&gt;FULFILLS -->
<g id="edge27" class="edge">
<title>WAREHOUSE-&gt;FULFILLS</title>
<path fill="none" stroke="#000000" d="M1046.9249,-792.2527C989.1039,-774.3771 892.511,-744.5151 839.3262,-728.0728"/>
<text text-anchor="middle" x="985.6591" y="-760.1069" font-family="Helvetica,sans-Serif" font-size="12.00" fill="#000000">(0,n)</text>
</g>
<!-- STORES -->
<g id="node27" class="node">
<title>STORES</title>
<polygon fill="#e5e5e5" stroke="#000000" points="1104.3261,-734.4738 1045.1253,-716.325 1104.3261,-698.1761 1163.5269,-716.325 1104.3261,-734.4738"/>
<polygon fill="none" stroke="#000000" points="1104.3261,-738.6903 1031.3712,-716.325 1104.3261,-693.9596 1177.2809,-716.325 1104.3261,-738.6903"/>
<text text-anchor="middle" x="1104.3261" y="-712.725" font-family="Helvetica,sans-Serif" font-size="12.00" fill="#000000">STORES</text>
</g>
<!-- WAREHOUSE&#45;&gt;STORES -->
<g id="edge29" class="edge">
<title>WAREHOUSE-&gt;STORES</title>
<path fill="none" stroke="#000000" d="M1096.3497,-788.5763C1097.9591,-773.998 1100.2154,-753.5605 1101.9177,-738.1405"/>
<text text-anchor="middle" x="1111.6591" y="-760.1069" font-family="Helvetica,sans-Serif" font-size="12.00" fill="#000000">(0,n)</text>
</g>
<!-- warehouse_id -->
<g id="node59" class="node">
<title>warehouse_id</title>
<ellipse fill="#ffffff" stroke="#000000" cx="1253.3261" cy="-716.325" rx="57.8433" ry="18"/>
<text text-anchor="start" x="1215.9827" y="-713.725" font-family="Helvetica,sans-Serif" text-decoration="underline" font-size="12.00" fill="#000000">warehouse_id</text>
</g>
<!-- WAREHOUSE&#45;&gt;warehouse_id -->
<g id="edge62" class="edge">
<title>WAREHOUSE-&gt;warehouse_id</title>
<path fill="none" stroke="#000000" d="M1126.1199,-788.794C1155.2107,-772.221 1197.8253,-747.9436 1225.5714,-732.1367"/>
</g>
<!-- total_capacity -->
<g id="node60" class="node">
<title>total_capacity</title>
<ellipse fill="#ffffff" stroke="#000000" cx="1386.3261" cy="-716.325" rx="57.1418" ry="18"/>
<text text-anchor="middle" x="1386.3261" y="-712.725" font-family="Helvetica,sans-Serif" font-size="12.00" fill="#000000">total_capacity</text>
</g>
<!-- WAREHOUSE&#45;&gt;total_capacity -->
<g id="edge63" class="edge">
<title>WAREHOUSE-&gt;total_capacity</title>
<path fill="none" stroke="#000000" d="M1141.6363,-793.0427C1187.4512,-779.5095 1258.82,-758.1452 1320.3261,-738.5069 1329.0778,-735.7125 1338.4501,-732.6223 1347.3031,-729.6582"/>
</g>
<!-- BOOK_ORDER -->
<g id="node10" class="node">
<title>BOOK_ORDER</title>
<polygon fill="#e5e5e5" stroke="#000000" points="422.5106,-639.7431 322.1415,-639.7431 322.1415,-603.7431 422.5106,-603.7431 422.5106,-639.7431"/>
<polygon fill="none" stroke="#000000" points="426.4986,-643.7431 318.1536,-643.7431 318.1536,-599.7431 426.4986,-599.7431 426.4986,-643.7431"/>
<text text-anchor="middle" x="372.3261" y="-618.1431" font-family="Helvetica,sans-Serif" font-size="12.00" fill="#000000">BOOK_ORDER</text>
</g>
<!-- BELONGS_TO -->
<g id="node23" class="node">
<title>BELONGS_TO</title>
<polygon fill="#e5e5e5" stroke="#000000" points="309.3261,-545.2394 221.497,-527.1715 309.3261,-509.1037 397.1551,-527.1715 309.3261,-545.2394"/>
<polygon fill="none" stroke="#000000" points="309.3261,-549.3377 201.5747,-527.1715 309.3261,-505.0053 417.0774,-527.1715 309.3261,-549.3377"/>
<text text-anchor="middle" x="309.3261" y="-523.5715" font-family="Helvetica,sans-Serif" font-size="12.00" fill="#000000">BELONGS_TO</text>
</g>
<!-- BOOK_ORDER&#45;&gt;BELONGS_TO -->
<g id="edge21" class="edge">
<title>BOOK_ORDER-&gt;BELONGS_TO</title>
<path fill="none" stroke="#000000" d="M357.3959,-599.3309C346.771,-583.3815 332.6301,-562.1541 322.4395,-546.8566"/>
<text text-anchor="middle" x="357.6591" y="-570.9431" font-family="Helvetica,sans-Serif" font-size="12.00" fill="#000000">(1,1)</text>
</g>
<!-- ORDERS -->
<g id="node24" class="node">
<title>ORDERS</title>
<polygon fill="#e5e5e5" stroke="#000000" points="510.3261,-545.3119 449.5844,-527.1715 510.3261,-509.0312 571.0678,-527.1715 510.3261,-545.3119"/>
<polygon fill="none" stroke="#000000" points="510.3261,-549.5159 435.5074,-527.1715 510.3261,-504.8271 585.1447,-527.1715 510.3261,-549.5159"/>
<text text-anchor="middle" x="510.3261" y="-523.5715" font-family="Helvetica,sans-Serif" font-size="12.00" fill="#000000">ORDERS</text>
</g>
<!-- BOOK_ORDER&#45;&gt;ORDERS -->
<g id="edge23" class="edge">
<title>BOOK_ORDER-&gt;ORDERS</title>
<path fill="none" stroke="#000000" d="M404.6809,-599.5702C430.0145,-582.2091 464.6324,-558.4854 487.2292,-542.9998"/>
<text text-anchor="middle" x="462.6591" y="-570.9431" font-family="Helvetica,sans-Serif" font-size="12.00" fill="#000000">(1,1)</text>
</g>
<!-- q2 -->
<g id="node62" class="node">
<title>q2</title>
<ellipse fill="#ffffff" stroke="#000000" cx="146.3261" cy="-527.1715" rx="37.1092" ry="18"/>
<text text-anchor="middle" x="146.3261" y="-523.5715" font-family="Helvetica,sans-Serif" font-size="12.00" fill="#000000">quantity</text>
</g>
<!-- BOOK_ORDER&#45;&gt;q2 -->
<g id="edge65" class="edge">
<title>BOOK_ORDER-&gt;q2</title>
<path fill="none" stroke="#000000" d="M317.9792,-600.9741C282.0597,-586.9805 234.0782,-567.7774 192.3261,-549.3431 185.838,-546.4785 178.9128,-543.2391 172.4573,-540.1388"/>
</g>
<!-- WAREHOUSE_STOCK -->
<g id="node11" class="node">
<title>WAREHOUSE_STOCK</title>
<polygon fill="#e5e5e5" stroke="#000000" points="1440.5013,-639.7431 1298.1508,-639.7431 1298.1508,-603.7431 1440.5013,-603.7431 1440.5013,-639.7431"/>
<polygon fill="none" stroke="#000000" points="1444.4924,-643.7431 1294.1597,-643.7431 1294.1597,-599.7431 1444.4924,-599.7431 1444.4924,-643.7431"/>
<text text-anchor="middle" x="1369.3261" y="-618.1431" font-family="Helvetica,sans-Serif" font-size="12.00" fill="#000000">WAREHOUSE_STOCK</text>
</g>
<!-- SUPPLIES -->
<g id="node25" class="node">
<title>SUPPLIES</title>
<polygon fill="#e5e5e5" stroke="#000000" points="1369.3261,-545.286 1301.891,-527.1715 1369.3261,-509.057 1436.7611,-527.1715 1369.3261,-545.286"/>
<polygon fill="none" stroke="#000000" points="1369.3261,-549.4523 1286.3811,-527.1715 1369.3261,-504.8907 1452.271,-527.1715 1369.3261,-549.4523"/>
<text text-anchor="middle" x="1369.3261" y="-523.5715" font-family="Helvetica,sans-Serif" font-size="12.00" fill="#000000">SUPPLIES</text>
</g>
<!-- WAREHOUSE_STOCK&#45;&gt;SUPPLIES -->
<g id="edge25" class="edge">
<title>WAREHOUSE_STOCK-&gt;SUPPLIES</title>
<path fill="none" stroke="#000000" d="M1369.3261,-599.3309C1369.3261,-584.2555 1369.3261,-564.4645 1369.3261,-549.4228"/>
<text text-anchor="middle" x="1381.6591" y="-570.9431" font-family="Helvetica,sans-Serif" font-size="12.00" fill="#000000">(1,1)</text>
</g>
<!-- q1 -->
<g id="node61" class="node">
<title>q1</title>
<ellipse fill="#ffffff" stroke="#000000" cx="1507.3261" cy="-527.1715" rx="37.1092" ry="18"/>
<text text-anchor="middle" x="1507.3261" y="-523.5715" font-family="Helvetica,sans-Serif" font-size="12.00" fill="#000000">quantity</text>
</g>
<!-- WAREHOUSE_STOCK&#45;&gt;q1 -->
<g id="edge64" class="edge">
<title>WAREHOUSE_STOCK-&gt;q1</title>
<path fill="none" stroke="#000000" d="M1401.6809,-599.5702C1427.4925,-581.8815 1462.9421,-557.5879 1485.4953,-542.1322"/>
</g>
<!-- EMPLOYEE -->
<g id="node12" class="node">
<title>EMPLOYEE</title>
<polygon fill="#e5e5e5" stroke="#000000" points="983.3398,-1044.9069 901.3123,-1044.9069 901.3123,-1008.9069 983.3398,-1008.9069 983.3398,-1044.9069"/>
<polygon fill="none" stroke="#000000" points="987.3405,-1048.9069 897.3117,-1048.9069 897.3117,-1004.9069 987.3405,-1004.9069 987.3405,-1048.9069"/>
<text text-anchor="middle" x="942.3261" y="-1023.3069" font-family="Helvetica,sans-Serif" font-size="12.00" fill="#000000">EMPLOYEE</text>
</g>
<!-- STAFFS -->
<g id="node16" class="node">
<title>STAFFS</title>
<polygon fill="#e5e5e5" stroke="#000000" points="1080.3261,-932.9069 1024.3207,-914.9069 1080.3261,-896.9069 1136.3315,-914.9069 1080.3261,-932.9069"/>
<text text-anchor="middle" x="1080.3261" y="-911.3069" font-family="Helvetica,sans-Serif" font-size="12.00" fill="#000000">STAFFS</text>
</g>
<!-- EMPLOYEE&#45;&gt;STAFFS -->
<g id="edge7" class="edge">
<title>EMPLOYEE-&gt;STAFFS</title>
<path fill="none" stroke="#000000" d="M969.5904,-1004.7793C997.8683,-981.8291 1041.1264,-946.7211 1064.3187,-927.8984"/>
<text text-anchor="middle" x="1047.6591" y="-965.3069" font-family="Helvetica,sans-Serif" font-size="12.00" fill="#000000">(0,n)</text>
</g>
<!-- position -->
<g id="node63" class="node">
<title>position</title>
<ellipse fill="#ffffff" stroke="#000000" cx="942.3261" cy="-914.9069" rx="36.7511" ry="18"/>
<text text-anchor="middle" x="942.3261" y="-911.3069" font-family="Helvetica,sans-Serif" font-size="12.00" fill="#000000">position</text>
</g>
<!-- EMPLOYEE&#45;&gt;position -->
<g id="edge66" class="edge">
<title>EMPLOYEE-&gt;position</title>
<path fill="none" stroke="#000000" d="M942.3261,-1004.7793C942.3261,-983.7416 942.3261,-952.488 942.3261,-932.9269"/>
</g>
<!-- WRITTEN_BY&#45;&gt;AUTHOR -->
<g id="edge2" class="edge">
<title>WRITTEN_BY-&gt;AUTHOR</title>
<path fill="none" stroke="#000000" d="M918.3261,-331.8768C918.3261,-317.1153 918.3261,-296.4754 918.3261,-281.8005"/>
<text text-anchor="middle" x="930.6591" y="-303.4" font-family="Helvetica,sans-Serif" font-size="12.00" fill="#000000">(1,n)</text>
</g>
<!-- PUBLISHED_BY&#45;&gt;PUBLISHER -->
<g id="edge4" class="edge">
<title>PUBLISHED_BY-&gt;PUBLISHER</title>
<path fill="none" stroke="#000000" d="M1146.5416,-337.4514C1180.2118,-322.759 1235.7934,-298.5052 1273.913,-281.8712"/>
<text text-anchor="middle" x="1239.6591" y="-303.4" font-family="Helvetica,sans-Serif" font-size="12.00" fill="#000000">(1,n)</text>
</g>
<!-- PLACES&#45;&gt;ORDER -->
<g id="edge6" class="edge">
<title>PLACES-&gt;ORDER</title>
<path fill="none" stroke="#000000" d="M214.4386,-962.4598C164.4402,-951.3603 81.3261,-923.4963 81.3261,-860.9069 81.3261,-860.9069 81.3261,-860.9069 81.3261,-527.1715 81.3261,-498.5599 101.9531,-471.5958 118.3902,-454.651"/>
<text text-anchor="middle" x="93.6591" y="-712.725" font-family="Helvetica,sans-Serif" font-size="12.00" fill="#000000">(1,1)</text>
</g>
<!-- STAFFS&#45;&gt;WAREHOUSE -->
<g id="edge8" class="edge">
<title>STAFFS-&gt;WAREHOUSE</title>
<path fill="none" stroke="#000000" d="M1082.5754,-897.5548C1085.157,-877.6394 1089.371,-845.1319 1091.9889,-824.9362"/>
<text text-anchor="middle" x="1101.6591" y="-857.3069" font-family="Helvetica,sans-Serif" font-size="12.00" fill="#000000">(1,n)</text>
</g>
<!-- IS_IN&#45;&gt;CATEGORY -->
<g id="edge11" class="edge">
<title>IS_IN-&gt;CATEGORY</title>
<path fill="none" stroke="#000000" d="M753.1954,-341.117C720.5385,-327.0794 657.184,-299.8464 615.0611,-281.7398"/>
<text text-anchor="middle" x="697.6591" y="-303.4" font-family="Helvetica,sans-Serif" font-size="12.00" fill="#000000">(0,n)</text>
</g>
<!-- h1&#45;&gt;ADDRESS -->
<g id="edge12" class="edge">
<title>h1-&gt;ADDRESS</title>
<path fill="none" stroke="#000000" d="M692.2022,-843.4906C687.3707,-810.9891 681.6654,-740.2258 713.3261,-694.1431 737.4788,-658.9882 784.0736,-639.8624 817.0803,-630.2429"/>
<text text-anchor="middle" x="702.6591" y="-760.1069" font-family="Helvetica,sans-Serif" font-size="12.00" fill="#000000">(1,n)</text>
</g>
<!-- h2&#45;&gt;ADDRESS -->
<g id="edge14" class="edge">
<title>h2-&gt;ADDRESS</title>
<path fill="none" stroke="#000000" d="M940.8552,-702.7737C923.1824,-686.2239 893.226,-658.1711 873.6095,-639.8012"/>
<text text-anchor="middle" x="922.6591" y="-665.3431" font-family="Helvetica,sans-Serif" font-size="12.00" fill="#000000">(1,1)</text>
</g>
<!-- ha1&#45;&gt;NAME -->
<g id="edge16" class="edge">
<title>ha1-&gt;NAME</title>
<path fill="none" stroke="#000000" d="M782.5977,-168.7535C792.7574,-165.5765 804.5207,-162.0996 815.3261,-159.4 933.9316,-129.7679 1077.843,-105.0557 1136.9647,-95.379"/>
<text text-anchor="middle" x="970.6591" y="-130.6" font-family="Helvetica,sans-Serif" font-size="12.00" fill="#000000">(1,n)</text>
</g>
<!-- ha2&#45;&gt;NAME -->
<g id="edge18" class="edge">
<title>ha2-&gt;NAME</title>
<path fill="none" stroke="#000000" d="M1413.1922,-1079.9682C1469.9686,-1070.0613 1572.3261,-1042.0571 1572.3261,-968.9069 1572.3261,-968.9069 1572.3261,-968.9069 1572.3261,-177.4 1572.3261,-165.7678 1563.7168,-164.6288 1553.3261,-159.4 1489.0874,-127.0741 1268.9747,-101.802 1191.5385,-93.7256"/>
<text text-anchor="middle" x="1584.6591" y="-570.9431" font-family="Helvetica,sans-Serif" font-size="12.00" fill="#000000">(1,n)</text>
</g>
<!-- IS_AN&#45;&gt;EMPLOYEE -->
<g id="edge20" class="edge">
<title>IS_AN-&gt;EMPLOYEE</title>
<path fill="none" stroke="#000000" d="M897.9594,-1124.2609C907.3457,-1103.6644 922.3299,-1070.7846 932.248,-1049.0211"/>
<text text-anchor="middle" x="935.6591" y="-1081.3069" font-family="Helvetica,sans-Serif" font-size="12.00" fill="#000000">(1,1)</text>
</g>
<!-- BELONGS_TO&#45;&gt;ORDER -->
<g id="edge22" class="edge">
<title>BELONGS_TO-&gt;ORDER</title>
<path fill="none" stroke="#000000" d="M279.1483,-511.1876C247.8913,-494.6321 199.3473,-468.9204 168.2021,-452.4241"/>
<text text-anchor="middle" x="241.6591" y="-476.2" font-family="Helvetica,sans-Serif" font-size="12.00" fill="#000000">(1,1)</text>
</g>
<!-- ORDERS&#45;&gt;BOOK -->
<g id="edge24" class="edge">
<title>ORDERS-&gt;BOOK</title>
<path fill="none" stroke="#000000" d="M549.5393,-516.3869C563.6235,-512.6285 579.6511,-508.4834 594.3261,-505 703.6801,-479.0424 834.968,-452.8405 890.9145,-441.9057"/>
<text text-anchor="middle" x="747.6591" y="-476.2" font-family="Helvetica,sans-Serif" font-size="12.00" fill="#000000">(0,n)</text>
</g>
<!-- SUPPLIES&#45;&gt;BOOK -->
<g id="edge26" class="edge">
<title>SUPPLIES-&gt;BOOK</title>
<path fill="none" stroke="#000000" d="M1326.3645,-516.3642C1310.9377,-512.6038 1293.3864,-508.4631 1277.3261,-505 1153.9022,-478.386 1005.4333,-451.8168 945.4371,-441.3047"/>
<text text-anchor="middle" x="1200.6591" y="-476.2" font-family="Helvetica,sans-Serif" font-size="12.00" fill="#000000">(0,n)</text>
</g>
<!-- FULFILLS&#45;&gt;BOOK_ORDER -->
<g id="edge28" class="edge">
<title>FULFILLS-&gt;BOOK_ORDER</title>
<path fill="none" stroke="#000000" d="M757.0313,-706.5593C677.9289,-689.1195 512.6369,-652.6775 426.7561,-633.7433"/>
<text text-anchor="middle" x="625.6591" y="-665.3431" font-family="Helvetica,sans-Serif" font-size="12.00" fill="#000000">(1,1)</text>
</g>
<!-- STORES&#45;&gt;WAREHOUSE_STOCK -->
<g id="edge30" class="edge">
<title>STORES-&gt;WAREHOUSE_STOCK</title>
<path fill="none" stroke="#000000" d="M1138.1577,-704.25C1180.7849,-689.0358 1254.8446,-662.603 1307.6502,-643.756"/>
<text text-anchor="middle" x="1264.6591" y="-665.3431" font-family="Helvetica,sans-Serif" font-size="12.00" fill="#000000">(1,1)</text>
</g>
</g>
</svg>